# xmcd
#
# Track frame offsets:
#	150
#	6330
#	25325
#	48802
#	71685
#	94180
#	120392
#	147510
#	171972
#	195630
#	230342
#	253110
#	272800
#	292860
#
# Disc length: 4244 seconds
#
# Revision: 1
# Processed by: cddbd v1.5.1PL0 Copyright (c) Steve Scherf et al.
# Submitted via: CDex 1.50Beta5
#
DISCID=c610920e
DTITLE=Various Artist - One Nation/Incognito
DYEAR=1900
DGENRE=Other
TTITLE0=Jean-Paul"Bluey"Maunick/Master Plan
TTITLE1=松原みき/真夜中のドア
TTITLE2=m-flo/come again
TTITLE3=MIHO/Life
TTITLE4=Pushim/Heavenly
TTITLE5=キリンジ/エイリアンズ
TTITLE6=Fantastic Plastic Machine/Beautiful Days
TTITLE7=嶋野百恵/Hot Glamour
TTITLE8=唐沢美帆/Ethology
TTITLE9=Bonnie Pink/泡になった
TTITLE10=小原明子feat.akiko/Out of the blue
TTITLE11=orange pekoe/Happy valley
TTITLE12=Neo/Kissing you
TTITLE13=ORIGINAL LOVE/プライマル
EXTD=
EXTT0=
EXTT1=
EXTT2=
EXTT3=
EXTT4=
EXTT5=
EXTT6=
EXTT7=
EXTT8=
EXTT9=
EXTT10=
EXTT11=
EXTT12=
EXTT13=
PLAYORDER=
